<?xml version="1.0" encoding="UTF-8"?>
<svg width="59px" height="59px" viewBox="0 0 59 59" version="1.1" xmlns="http://www.w3.org/2000/svg" xmlns:xlink="http://www.w3.org/1999/xlink">
    <!-- Generator: Sketch 43.2 (39069) - http://www.bohemiancoding.com/sketch -->
    <title>logo-its</title>
    <desc>Created with Sketch.</desc>
    <defs></defs>
    <g id="Page-1" stroke="none" stroke-width="1" fill="none" fill-rule="evenodd">
        <g id="logo-its" fill-rule="nonzero" fill="#FFFFFF">
            <rect id="Rectangle-Copy" x="0.88135592" y="52.956985" width="58.118645" height="5.0860281"></rect>
            <g id="its_marca_horiz_roxa-03-copy" transform="translate(1.000000, 0.000000)">
                <polygon id="Shape-Copy-2" points="22.560426 38.549481 18.273428 38.549481 18.273428 24 0 24 0 46.682866 22.560426 46.682866"></polygon>
                <path d="M18.355767,0.0373053 L18.355767,24.091763 L22.641524,24.091763 L22.641524,38.64 L27.507376,38.64 L27.507376,27.289241 L24.122381,27.289241 L24.122381,24.11083 L35.124339,24.11083 L34.616238,27.289241 L31.73893,27.289241 L31.73893,38.64 L35.970898,38.64 L35.970898,38.399174 L35.970898,35.34387 C35.970898,35.34387 38.403824,35.978889 39.39851,35.978889 C40.266171,35.978889 41.26003,35.767492 41.26003,34.750301 C41.26003,33.753835 40.646419,33.563164 39.842478,33.180991 L39.060052,32.820374 C37.642086,32.1638 35.758637,31.316141 35.758637,28.412131 C35.758637,24.639736 38.700078,23.89736 41.217826,23.89736 C43.523313,23.89736 44.856871,24.533623 44.856871,24.533623 L44.856871,27.521777 C44.856871,27.521777 42.761576,26.928209 41.640278,26.928209 C40.688209,26.928209 39.947987,27.16116 39.947987,28.030788 C39.947987,28.815028 40.603802,29.154092 41.471463,29.514709 L42.148793,29.789525 C43.692956,30.425788 45.49117,31.358835 45.49117,34.304296 C45.49117,36.829035 44.435661,38.052235 43.060312,38.639171 L57.85358,38.639171 L57.85358,0.0373053 L18.355767,0.0373053 L18.355767,0.0373053 L18.355767,0.0373053 Z" id="Shape-Copy"></path>
            </g>
        </g>
    </g>
</svg>